<?xml version="1.0" encoding="UTF-8" standalone="no"?>
<!-- Created with Inkscape (http://www.inkscape.org/) -->

<svg
   xmlns:dc="http://purl.org/dc/elements/1.1/"
   xmlns:cc="http://creativecommons.org/ns#"
   xmlns:rdf="http://www.w3.org/1999/02/22-rdf-syntax-ns#"
   xmlns:svg="http://www.w3.org/2000/svg"
   xmlns="http://www.w3.org/2000/svg"
   xmlns:sodipodi="http://sodipodi.sourceforge.net/DTD/sodipodi-0.dtd"
   xmlns:inkscape="http://www.inkscape.org/namespaces/inkscape"
   width="81.585236mm"
   height="37.359165mm"
   viewBox="0 0 81.585236 37.359165"
   version="1.1"
   id="svg9017"
   inkscape:version="0.92.1 r15371"
   sodipodi:docname="logo.svg">
  <defs
     id="defs9011" />
  <sodipodi:namedview
     id="base"
     pagecolor="#ffffff"
     bordercolor="#666666"
     borderopacity="1.0"
     inkscape:pageopacity="0.0"
     inkscape:pageshadow="2"
     inkscape:zoom="0.35"
     inkscape:cx="582.74826"
     inkscape:cy="344.88571"
     inkscape:document-units="mm"
     inkscape:current-layer="layer1"
     showgrid="false"
     fit-margin-top="0"
     fit-margin-left="0"
     fit-margin-right="0"
     fit-margin-bottom="0"
     inkscape:window-width="1366"
     inkscape:window-height="705"
     inkscape:window-x="1768"
     inkscape:window-y="224"
     inkscape:window-maximized="1" />
  <metadata
     id="metadata9014">
    <rdf:RDF>
      <cc:Work
         rdf:about="">
        <dc:format>image/svg+xml</dc:format>
        <dc:type
           rdf:resource="http://purl.org/dc/dcmitype/StillImage" />
        <dc:title></dc:title>
      </cc:Work>
    </rdf:RDF>
  </metadata>
  <g
     inkscape:label="Capa 1"
     inkscape:groupmode="layer"
     id="layer1"
     transform="translate(48.352144,-202.72518)">
    <g
       transform="matrix(0.26458333,0,0,0.26458333,-162.96964,200.13226)"
       id="g8976">
      <path
         style="fill:#ffffff;stroke:#ffffff;stroke-width:4.1072998;stroke-miterlimit:10"
         inkscape:connector-curvature="0"
         id="path439"
         d="m 669.6,57.3 h -59.1 c -6,0 -10.8,4.9 -10.8,10.8 V 98 h 69.9 59.1 c 6,0 10.8,-4.9 10.8,-10.8 V 57.3 Z"
         stroke-miterlimit="10" />
      <g
         id="g437">
        <circle
           id="circle423"
           r="70.599998"
           cy="80.400002"
           cx="503.79999"
           style="fill:#ffffff" />
        <circle
           id="circle425"
           r="66.900002"
           cy="80.400002"
           cx="503.79999"
           style="fill:#ec6807" />
        <circle
           id="circle427"
           r="52.799999"
           cy="80.400002"
           cx="503.79999"
           style="fill:#000a10" />
        <g
           id="g435">
          <path
             id="path429"
             d="M 467.9,96.6 V 74.8 h -6.5 V 64.2 H 486 v 10.6 h -6.5 v 21.8 z"
             inkscape:connector-curvature="0"
             style="fill:#ffffff" />
          <path
             id="path431"
             d="M 489.8,96.6 V 64.2 h 14.7 c 4.3,0 7.5,0.9 9.7,2.8 2.2,1.9 3.4,4.6 3.4,8.1 0,2.3 -0.6,4.2 -1.7,5.7 -1.1,1.5 -2.7,2.4 -4.6,2.6 l 8.7,13.2 h -13.1 l -5.7,-10.7 v 10.7 z m 11.5,-24.1 v 6.3 h 1.8 c 1.1,0 1.9,-0.3 2.5,-0.8 0.6,-0.5 0.9,-1.3 0.9,-2.3 0,-1 -0.3,-1.8 -0.9,-2.4 -0.6,-0.6 -1.5,-0.8 -2.6,-0.8 z"
             inkscape:connector-curvature="0"
             style="fill:#ffffff" />
          <path
             id="path433"
             d="m 519.4,93.8 3.7,-9.1 c 1.6,1.1 3.1,2 4.5,2.6 1.3,0.5 2.5,0.8 3.7,0.8 0.4,0 0.8,0 1.1,-0.1 0.3,-0.1 0.5,-0.2 0.8,-0.4 0.5,-0.3 0.7,-0.7 0.7,-1.2 0,-0.9 -1.1,-1.6 -3.4,-2.1 l -1.7,-0.4 c -2.4,-0.6 -4.3,-1.6 -5.5,-3.1 -1.3,-1.5 -1.9,-3.4 -1.9,-5.6 0,-3.5 1.2,-6.3 3.7,-8.5 2.5,-2.2 5.8,-3.3 9.8,-3.3 1.8,0 3.7,0.2 5.5,0.7 0.9,0.3 1.8,0.6 2.7,0.9 0.9,0.4 1.8,0.8 2.8,1.3 l -3.5,8.5 c -1.1,-0.8 -2.2,-1.4 -3.3,-1.9 -1.1,-0.5 -2.2,-0.7 -3.3,-0.7 -0.8,0 -1.4,0.1 -1.9,0.4 -0.5,0.3 -0.7,0.7 -0.7,1.1 0,0.9 1.6,1.7 4.9,2.4 l 1.2,0.3 c 2.2,0.5 4,1.5 5.3,3.1 1.3,1.6 1.9,3.4 1.9,5.6 0,3.6 -1.3,6.5 -3.9,8.8 -2.6,2.3 -6,3.4 -10.1,3.4 -2.2,0 -4.3,-0.3 -6.4,-0.9 -2.5,-0.5 -4.6,-1.4 -6.7,-2.6 z"
             inkscape:connector-curvature="0"
             style="fill:#ffffff" />
        </g>
      </g>
      <g
         id="g469">
        <path
           id="path441"
           d="m 739.5,57.3 h -69.9 v 40.8 h 59.1 c 6,0 10.8,-4.9 10.8,-10.8 z"
           inkscape:connector-curvature="0" />
        <g
           id="g455">
          <polygon
             id="polygon443"
             points="685.9,89.8 686.4,96 689.6,96 688.2,83.6 684.2,83.6 683.4,89.2 682.4,83.6 678.5,83.6 677.3,96 680.7,96 680.9,90 682.3,96 684.7,96 685.9,90.2 "
             style="fill:#ffffff" />
          <path
             id="path445"
             d="M 694.9,83.6 691.7,96 h 3.2 l 0.5,-2 h 2.1 l 0.5,2 h 3.3 L 698,83.6 Z m 1.5,5.2 v 0 l 0.6,2.8 h -1.1 z"
             inkscape:connector-curvature="0"
             style="fill:#ffffff" />
          <path
             id="path447"
             d="m 708.2,88.7 c -0.8,-0.5 -1.5,-1 -1.5,-1.7 0,-0.6 0.4,-0.9 1,-0.9 0.5,0 1.1,0.2 1.7,0.7 l 0.5,0.4 v -3 l -0.2,-0.1 c -0.8,-0.4 -1.6,-0.6 -2.4,-0.6 -2.2,0 -3.7,1.5 -3.7,3.8 0,1.8 1,2.8 2.5,3.7 0.1,0.1 0.2,0.1 0.3,0.2 0.7,0.4 1.1,0.7 1.1,1.3 0,0.6 -0.5,1 -1.2,1 -0.6,0 -1.1,-0.2 -1.8,-0.6 l -0.4,-0.3 v 2.9 l 0.1,0.1 c 0.6,0.4 1.5,0.6 2.4,0.6 2.4,0 4,-1.6 4,-4 0,-1.9 -1.4,-2.8 -2.4,-3.5 z"
             inkscape:connector-curvature="0"
             style="fill:#ffffff" />
          <path
             id="path449"
             d="m 718,88.7 c -0.8,-0.5 -1.5,-1 -1.5,-1.7 0,-0.6 0.4,-0.9 1,-0.9 0.5,0 1.1,0.2 1.7,0.7 l 0.5,0.4 v -3 l -0.2,-0.1 c -0.8,-0.4 -1.6,-0.6 -2.4,-0.6 -2.2,0 -3.7,1.5 -3.7,3.8 0,1.8 1,2.8 2.5,3.7 0.1,0.1 0.2,0.1 0.3,0.2 0.7,0.4 1.1,0.7 1.1,1.3 0,0.6 -0.5,1 -1.2,1 -0.6,0 -1.1,-0.2 -1.8,-0.6 l -0.4,-0.3 v 2.9 l 0.1,0.1 c 0.6,0.4 1.5,0.6 2.4,0.6 2.4,0 4,-1.6 4,-4 0,-1.9 -1.3,-2.8 -2.4,-3.5 z"
             inkscape:connector-curvature="0"
             style="fill:#ffffff" />
          <polygon
             id="polygon451"
             points="725.8,82.4 727.5,83.3 730.2,80.7 727.8,79.7 "
             style="fill:#ffffff" />
          <path
             id="path453"
             d="m 728,83.5 c -2.3,0 -4.9,1.7 -4.9,6.4 0,4.7 2.5,6.4 4.9,6.4 2.3,0 4.9,-1.7 4.9,-6.4 -0.1,-4.8 -2.6,-6.4 -4.9,-6.4 z m 1.5,6.3 c 0,0.9 -0.1,3.6 -1.5,3.6 -1.4,0 -1.5,-2.8 -1.5,-3.6 0,-1.1 0.1,-3.6 1.5,-3.6 1.4,0 1.5,2.5 1.5,3.6 z"
             inkscape:connector-curvature="0"
             style="fill:#ffffff" />
        </g>
        <g
           id="g467">
          <polygon
             id="polygon457"
             points="632.1,98.1 621.8,78.5 621.8,98.1 "
             style="fill:#ea2900" />
          <rect
             id="rect459"
             height="40.799999"
             width="6.9000001"
             y="57.299999"
             x="662.70001"
             style="fill:#ea2900" />
          <path
             id="path461"
             d="M 599.7,68.1 V 98 h 8.4 V 57.6 c -4.8,1.1 -8.4,5.4 -8.4,10.5 z"
             inkscape:connector-curvature="0"
             style="fill:#ea2900" />
          <polygon
             id="polygon463"
             points="624,57.3 635.4,77.6 646.8,57.3 "
             style="fill:#ea2900" />
          <polygon
             id="polygon465"
             points="649.1,98.1 649.1,78.5 638.7,98.1 "
             style="fill:#ea2900" />
        </g>
      </g>
    </g>
  </g>
</svg>
